<svg width="2500" height="2500" viewBox="0 0 2500 2500" fill="none" xmlns="http://www.w3.org/2000/svg">
<g clip-path="url(#clip0_1063_533)">
<path fill-rule="evenodd" clip-rule="evenodd" d="M645.635 1487.72H519.219L480.543 1394.46H269.849L234.623 1487.72H110.295L300.25 1016.61H436.329L645.635 1487.72ZM370.014 1129.21L300.937 1312.26H445.991L370.014 1129.21ZM1104.83 1016.61H1207.07V1487.72H1089.63V1193.45L962.538 1341.28H944.575L817.471 1193.45V1487.72H700.043V1016.61H802.258L953.55 1191.38L1104.83 1016.61ZM1504.65 1016.61C1676.63 1016.61 1765.06 1123.69 1765.06 1252.85C1765.06 1388.24 1679.4 1487.72 1491.51 1487.72H1296.7V1016.61H1504.65ZM1414.16 1401.4H1490.81C1608.93 1401.4 1644.16 1321.24 1644.16 1252.15C1644.16 1171.34 1600.66 1102.96 1489.43 1102.96H1414.15V1401.4H1414.16Z" fill="white"/>
<path fill-rule="evenodd" clip-rule="evenodd" d="M2239.61 1126.61H1998.17L1851.46 979.191L2389.71 978.53V1517.44L2239.61 1366.64V1126.61ZM1998.17 1371.37L1998.85 1153.65L1846.06 1306.47V1521.5H2067.17L2217.27 1371.37H1998.17Z" fill="#2B9969"/>
</g>
<defs>
<clipPath id="clip0_1063_533">
<rect width="2500" height="2500" fill="white"/>
</clipPath>
</defs>
</svg>
