<svg width="1954" height="325" viewBox="0 0 1954 325" fill="none" xmlns="http://www.w3.org/2000/svg">
<path d="M1650.47 2.46675C1649.13 3.66675 1647.53 6.33342 1646.87 8.20008C1645.67 11.0001 1645.93 12.0668 1648.47 14.0668C1653.27 17.9334 1655.67 16.4668 1655.4 9.93342C1655.27 6.86675 1654.6 3.40008 1653.93 2.20008C1652.87 0.333416 1652.6 0.333416 1650.47 2.46675Z" fill="#BDD345"/>
<path d="M1599.67 14.3336C1595.27 16.2003 1589.67 18.3336 1587.27 19.1336C1584.87 19.9336 1580.47 22.0669 1577.67 23.9336L1572.47 27.4003L1573.27 37.5336C1573.8 45.4003 1573.53 48.867 1571.67 53.0003C1570.47 55.9336 1569.13 62.6003 1569 67.9336C1568.33 80.7336 1562.47 94.867 1553.53 105C1549.4 109.667 1547 113.667 1547 115.8C1547 120.067 1545.27 123.534 1539 131C1536.33 134.334 1533.4 138.334 1532.47 139.934C1531.67 141.667 1530.07 143 1529.13 143C1524.47 143 1520.47 154.334 1519.8 169.534C1519.4 177.934 1517.53 181.534 1508.2 192.467C1503 198.6 1501.93 203.4 1501.8 222.334C1501.67 230.867 1500.87 239.267 1500.07 241C1499.27 242.867 1495.93 245.8 1492.73 247.8C1489.53 249.667 1482.07 256.067 1475.93 262.067C1466.87 271.134 1462.87 274.067 1452.33 279.134C1435.13 287.4 1428.87 289.4 1411.13 291.534C1402.87 292.6 1395.53 293.934 1395 294.467C1394.33 295.134 1393.27 298.067 1392.6 301L1391.4 306.467L1402.87 306.6C1409.13 306.734 1422.33 308.334 1432.2 310.2C1455.67 314.734 1456.6 314.734 1461.93 308.867C1464.33 306.2 1467.67 303.534 1469.27 302.867C1470.87 302.334 1473.67 299.4 1475.53 296.6C1477.4 293.667 1481 289.934 1483.53 288.334C1486.6 286.6 1490.33 282.067 1493.67 276.467C1499.67 266.067 1502.2 264.067 1512.33 261.667C1516.33 260.734 1526.33 257.4 1534.33 254.2C1545.93 249.667 1552.47 248.067 1565.13 246.467C1580.2 244.6 1582.07 244.067 1594.47 237.534C1611.8 228.467 1621 219.667 1623.8 209.667C1625 205.667 1627.93 196.067 1630.33 188.334C1632.73 180.6 1636.07 169.134 1637.67 162.734C1640.6 151.267 1640.73 150.867 1638.33 143.667C1635 132.734 1635.93 119.8 1640.6 113.667C1647.27 104.867 1653.27 81.0003 1651.67 69.667C1651.27 66.3336 1649.67 60.067 1648.33 55.667C1646.87 51.267 1644.87 42.0669 1643.8 35.1336C1642.6 28.3336 1640.87 21.2669 1639.8 19.6669C1633.93 10.8669 1614.47 8.20028 1599.67 14.3336Z" fill="#BDD345"/>
<path d="M1910.07 48.3335C1905.8 50.0668 1906.2 52.6002 1910.6 52.0668C1912.87 51.8002 1914.47 50.7335 1914.73 49.2668C1915.27 46.7335 1914.47 46.6002 1910.07 48.3335Z" fill="#BDD345"/>
<path d="M1915 58.4668C1914.2 60.3335 1913.67 62.3335 1913.67 62.8668C1913.67 63.4001 1912.2 65.9335 1910.33 68.3335C1905.93 74.3335 1903.4 82.6001 1905.4 84.6001C1909.13 88.3335 1921.53 79.6668 1927.8 68.8668C1930.47 64.2001 1930.87 62.6001 1929.67 60.4668C1926.33 54.2001 1917 52.8668 1915 58.4668Z" fill="#BDD345"/>
<path d="M946.734 75.8002C938.334 78.7335 937 78.8668 919.4 77.9335C891.667 76.3335 888.334 76.7335 880.734 83.6668C877.134 86.7335 871.8 90.6002 868.734 92.2002C863 95.0002 852.467 107.134 830.2 135.934C828.334 138.334 825.8 140.334 824.467 140.334C823.267 140.334 821 141.267 819.534 142.334C818.2 143.4 814.467 144.334 811.534 144.334C808.2 144.334 804.734 145.4 802.867 146.867C796.467 151.8 793 152.6 773.934 153.667C755.667 154.734 753.534 155.134 742.334 159.8C726.467 166.334 718.334 166.6 704.334 160.867L694.334 156.734L686.2 163C681.667 166.467 675 170.467 671.4 171.8C667.934 173 664.2 174.734 663.4 175.4C660.334 177.667 661.534 181.4 666.334 185.134C671 188.734 686.334 209.8 691 219C692.2 221.534 693.934 226.6 694.867 230.334C696.867 238.6 705.8 254.334 718.467 271.8C723.934 279.267 729.8 288.6 731.534 292.6C733.267 296.467 735.8 300.6 737 301.667C738.334 302.734 740.2 305.4 741.267 307.667C742.334 309.8 744.467 313.534 746.067 315.8C747.667 318.2 749.667 321.134 750.467 322.334C751.4 324.067 753.267 324.734 756.6 324.6C764.867 324.334 780.2 320.6 787.667 317C791.667 315.134 796.6 313.667 798.6 313.667C806.867 313.667 823 302.6 823 297C823 295.934 825.8 293 829.134 290.467C835.934 285.267 845.8 273.534 851.4 263.934C853.934 259.667 855.4 254.467 856.334 247.4C858.067 234.467 859 231.534 866.334 217.134C869.667 210.734 872.334 204.734 872.334 203.667C872.334 202.734 873.8 200.734 875.667 199.267C878.734 196.734 879 195.8 879 184.2C879 177.267 879.667 169.534 880.334 166.867C881.667 161.934 890.2 151 892.734 151C893.534 151 898.467 147 903.8 141.934C909.267 137 916.6 130.334 920.334 127.134C923.934 123.934 927 120.6 927 119.8C927 117.934 934.467 110.6 938.6 108.467C940.2 107.667 942.734 107 944.067 107C945.534 107 949.934 104.6 953.8 101.667C957.8 98.7335 961.934 96.3335 963.134 96.3335C966.2 96.3335 968.2 93.5335 970.467 86.3335C972.2 80.2002 972.2 80.0668 968.467 76.2002C963.667 71.4002 959.134 71.2668 946.734 75.8002Z" fill="#BDD345"/>
<path d="M1926.73 82.4668C1922.2 84.8668 1919 91.0002 1915 104.867C1911.27 117.4 1905 125.267 1900.07 123.667C1894.33 121.8 1884.47 121.4 1879.93 122.867C1877.4 123.667 1869.13 128.467 1861.4 133.534C1853.53 138.6 1845.8 143.134 1844.07 143.667C1842.47 144.2 1840.2 145.267 1839.4 145.934C1838.47 146.734 1836.33 147 1834.47 146.467C1829.13 145.134 1819.8 153.134 1806.33 170.734L1799.8 179.134L1798.73 196.067C1797.8 208.067 1796.87 214.067 1795.27 216.467C1794.07 218.334 1791 222.867 1788.73 226.334C1782.2 236.067 1783.27 240.6 1792.73 244.2C1795.93 245.4 1797.4 245.267 1801.67 242.867C1806.2 240.334 1807.27 240.2 1811 241.667C1813.27 242.6 1815.93 244.467 1816.87 245.8C1818.47 248.2 1819.13 247.8 1826.07 240.467C1831.27 235 1833.67 231.4 1833.67 229.134C1833.67 225.134 1837.4 220.867 1842.6 218.867C1844.47 218.2 1851.27 216.467 1857.67 215C1872.87 211.667 1886.2 206.734 1901 199.267C1910.47 194.467 1915.27 190.867 1923.67 182.467C1935.93 170.067 1937.8 166.2 1941.13 147.4C1943.4 134.067 1943.4 133.8 1940.73 127.534C1939.13 124.067 1938.2 120.467 1938.6 119.534C1938.87 118.6 1941.4 116.334 1944.2 114.6C1950.33 110.6 1953.67 103.934 1953.67 96.0668C1953.67 89.4002 1951.27 85.1335 1945.67 82.3335C1940.73 79.8002 1931.4 79.8002 1926.73 82.4668Z" fill="#BDD345"/>
<path d="M1211.8 110.067C1210.33 111.134 1208.87 114.734 1208.2 119C1206.33 131.267 1202.47 132.334 1184.07 126.2C1175.8 123.534 1172.07 122.867 1167.13 123.534C1149.13 126.067 1148.73 126.067 1142.07 122.867C1136.47 120.067 1134.07 119.667 1121.4 119.934C1113.4 120.067 1106.47 120.467 1105.67 121C1105 121.4 1105.27 123.534 1106.6 126.334C1108.47 130.2 1108.6 132.067 1107.27 137.4C1103.93 151.8 1100.2 159.4 1091.93 168.334C1088.6 171.934 1074.47 182.6 1068.73 185.8C1065.13 187.8 1062.47 190.467 1061.67 192.867C1060.07 197.534 1059.93 208.467 1061.53 215.267C1062.33 218.867 1062.2 220.867 1060.73 223C1059.53 224.6 1059.13 226.867 1059.67 228.734C1060.47 231.4 1070.73 247.934 1080.2 262.2C1083.8 267.667 1108.87 287.134 1118.47 292.067C1121.53 293.667 1128.47 295.934 1133.8 297.134C1139.27 298.334 1147.27 301 1151.53 303.267L1159.4 307.134L1168.2 297.8C1177.4 288.067 1184.33 284.067 1209 274.467C1221.53 269.534 1223.13 268.2 1223.93 261.534C1224.6 257.267 1225.53 255.534 1228.6 253.8C1233.27 251.134 1237 242.2 1235.8 236.067C1235.4 233.667 1234.6 228.867 1234.2 225.4C1233.4 219.534 1233.53 219.134 1236.73 218.334C1242.6 216.867 1243.67 214.334 1240.2 209.8C1237.13 205.667 1237.13 205.134 1239.8 188.334C1240.73 182.467 1240.73 182.467 1233.13 175.534L1225.4 168.734L1224.2 157.534C1223.4 151.4 1222.6 143.8 1222.2 140.6C1221.67 136.734 1220.33 133.934 1218.2 132.067C1214.07 128.467 1214.2 126.467 1218.33 123.8C1220.87 122.067 1221.67 120.467 1221.67 116.6C1221.67 109 1217.27 106.067 1211.8 110.067Z" fill="#BDD345"/>
<path d="M33.7996 130.333C32.3329 132.867 30.0663 135 28.7329 135C27.3996 135 23.1329 136.467 19.3996 138.333C12.4663 141.4 12.3329 141.667 12.3329 147.133C12.3329 152.067 11.6663 153.267 6.46628 157.933L0.599609 163.267L9.79961 181.933C14.8663 192.2 18.9996 201.933 18.9996 203.4C18.9996 204.867 22.5996 213.267 26.9996 221.933C31.3996 230.733 34.9996 239 34.9996 240.467C34.9996 243.8 38.3329 250.333 43.2663 256.333C45.9329 259.8 47.7996 264.6 49.7996 273.667C53.1329 289.267 56.3329 296.733 60.8663 299.667C65.7996 302.867 67.7996 301.533 68.8663 294.067C69.2663 290.6 70.8663 285.8 72.3329 283.667C81.3996 269.933 91.1329 252.333 94.0663 244.6C96.5996 238.2 96.9996 234.2 96.9996 218.333C96.9996 203.4 97.3996 198.867 99.2663 195.667C100.466 193.4 102.733 187.533 104.333 182.6L107.266 173.667L104.466 169.8C101.533 165.8 96.1996 152.733 92.8663 141.4C90.4663 133.533 88.8663 133 71.9329 134.867C54.3329 136.867 54.9996 137 46.1996 131C41.7996 128.067 37.9329 125.667 37.3996 125.667C36.9996 125.667 35.3996 127.8 33.7996 130.333Z" fill="#BDD345"/>
<path d="M301.667 174.734C296.6 179.667 295 182.067 295 185.267C295 193 275.267 208.2 265.267 208.334C263.134 208.334 257.534 206.734 252.6 204.867C246.467 202.334 243.267 201.667 241.8 202.6C238.467 204.734 232.6 212.734 231.667 216.334C230.734 220.2 234.867 227.134 240.467 231.4C245.267 234.867 257.667 237.667 269 237.667H278.334L286.2 246.334C300.734 262.6 303 262.6 306.867 245.534C310.2 231.4 312.334 226.867 317.534 223.134C320.334 221.134 322.6 217.134 325.534 209.8C327.667 203.934 331.4 196.734 333.534 193.534C343.267 180.2 334.467 168.334 314.6 168.334C308.867 168.334 307.667 168.867 301.667 174.734Z" fill="#BDD345"/>
<path d="M487.4 177.934C483.534 181.8 482.867 182.067 479.934 180.467C471.534 175.934 467.667 183.4 468.734 202.067C469.267 209.267 469 215.134 468.067 217.134C465.8 222.067 469.8 230.334 480.6 242.867C495.534 260.2 494.734 259.8 511.134 257.267C519.534 255.934 527.534 253.8 532.067 251.534C540.734 247.267 557.267 232.067 559.8 226.067C563.267 217.934 561.134 206.467 555.934 204.867C554.334 204.467 550.467 201.934 547.4 199.534C544.334 197 541.4 195 540.734 195C540.2 195 536.467 192.867 532.467 190.2C522.2 183.267 512.334 179 506.6 179C503.4 179 500.067 177.934 498.067 176.334C493.534 172.734 492.334 173 487.4 177.934Z" fill="#BDD345"/>
</svg>
